<svg width="135" height="27" viewBox="0 0 135 27" fill="none" xmlns="http://www.w3.org/2000/svg">
<path fill-rule="evenodd" clip-rule="evenodd" d="M29.1771 25.7898H22.0945L21.0937 24.481C19.708 25.0199 18.4763 25.4049 17.3985 25.7128C16.3207 25.9437 15.1659 26.0977 13.8572 26.0977C9.54607 26.0977 6.15875 25.0199 3.77224 22.9414C1.23175 20.7858 0 17.4755 0 13.2413C0 8.93019 1.15477 5.61986 3.38731 3.38731C5.69685 1.15477 9.16114 0 13.8572 0C18.3993 0 21.8636 1.23175 24.2501 3.61827C26.3287 5.69685 27.3295 8.3913 27.3295 11.6246C27.3295 14.0112 27.2525 15.7818 27.0215 16.8596C26.7136 18.5532 25.9437 20.1699 24.866 21.6326L29.1771 25.7898ZM21.0937 13.0104C21.0937 10.7008 20.6318 8.85321 19.631 7.3905C18.3993 5.54288 16.3977 4.61907 13.7802 4.61907C11.3167 4.61907 9.3921 5.31192 8.16035 6.77463C6.9286 8.16035 6.31272 10.2389 6.31272 12.9334C6.31272 15.9358 7.00558 18.1683 8.46828 19.554C9.77702 20.7858 11.7016 21.4017 14.2421 21.4017C16.5516 21.4017 18.2453 20.7088 19.4001 19.3231C20.5548 17.8604 21.0937 15.7818 21.0937 13.0104Z" fill="#BBC4D6"/>
<path fill-rule="evenodd" clip-rule="evenodd" d="M55.8913 17.8604C55.8913 20.0929 55.1215 21.9406 53.6588 23.4802C52.1961 25.0199 50.3484 25.7128 48.0389 25.7128H30.3325V21.1707H45.0365C46.0373 21.1707 46.8841 20.9398 47.5 20.4779C48.2699 19.939 48.6548 19.2461 48.6548 18.3223C48.6548 16.1667 47.1151 15.0889 44.1127 15.0889H36.7222C34.5666 15.0889 32.719 14.3961 31.1023 13.0874C29.4857 11.7786 28.7158 10.085 28.7158 8.00638C28.7158 5.77384 29.4857 3.92621 31.1023 2.54049C32.642 1.15477 34.7206 0.461914 37.3381 0.461914H54.3516V4.77304H39.2627C38.5698 4.77304 37.877 5.08098 37.2611 5.61987C36.4912 6.15876 36.1833 6.85162 36.1833 7.62146C36.1833 8.46829 36.4912 9.23813 37.1841 9.77702C37.877 10.3929 38.6468 10.6239 39.5706 10.6239H47.731C50.2715 10.6239 52.273 11.3167 53.7358 12.6254C55.1985 13.9342 55.8913 15.7048 55.8913 17.8604Z" fill="#BBC4D6"/>
<path fill-rule="evenodd" clip-rule="evenodd" d="M84.9913 13.0104C84.9913 17.9375 83.6056 21.4017 80.9111 23.5573C78.6786 25.251 75.4452 26.0978 71.2881 26.0978C66.592 26.0978 63.1277 25.097 60.8952 23.1724C58.4317 21.0168 57.2 17.5525 57.2 12.7795C57.2 8.85329 58.2777 5.77392 60.5103 3.61835C62.8968 1.23184 66.4381 0.0770721 71.2111 0.0770721C76.446 0.0770721 80.0643 1.23184 82.2199 3.46439C84.0675 5.46598 84.9913 8.62234 84.9913 13.0104ZM78.5246 12.8565C78.5246 10.393 77.9088 8.39139 76.754 6.92868C75.4452 5.31201 73.4437 4.46518 70.9032 4.46518C68.3627 4.46518 66.4381 5.31201 65.1293 7.08265C64.0516 8.54535 63.5127 10.47 63.5127 12.7795C63.5127 15.4739 63.9746 17.4755 64.8214 18.7843C66.0532 20.5549 68.2087 21.4787 71.519 21.4787C74.2905 21.4787 76.2151 20.6319 77.2929 18.8613C78.1397 17.6295 78.5246 15.5509 78.5246 12.8565Z" fill="#BBC4D6"/>
<path fill-rule="evenodd" clip-rule="evenodd" d="M110.319 15.1659H92.9201V25.6358H86.6843V10.1619C86.6843 9.23814 86.8383 8.16035 87.2232 7.00559C87.9161 4.92701 89.2248 3.38732 91.1494 2.30954C93.382 1.07779 97.0772 0.461914 102.158 0.461914C113.013 0.461914 123.868 0.461914 134.723 0.461914V4.69606H125.33V25.6358H119.48V4.69606C113.475 4.69606 107.778 4.61907 101.773 4.61907C99.4637 4.61907 97.8471 4.77304 96.9233 5.00399C95.3066 5.38892 94.2288 6.31273 93.5359 7.62146C92.997 8.62226 92.7661 9.70004 92.7661 10.9318H110.319V15.1659Z" fill="#BBC4D6"/>
</svg>
