<svg width="116" height="64" viewBox="0 0 116 64" fill="none" xmlns="http://www.w3.org/2000/svg">
<path d="M1.48438 32.0014C1.48438 14.486 27.7149 1.4433 57.9934 1.4433C88.2719 1.4433 114.516 14.486 114.516 32.0014C114.516 49.5222 88.2719 62.5327 57.9934 62.5327C27.7149 62.5327 1.48438 49.5222 1.48438 32.0014Z" fill="white"/>
<path fill-rule="evenodd" clip-rule="evenodd" d="M57.9933 0C90.0123 0 116 14.3389 116 32.0013C116 49.6664 90.0123 64 57.9933 64C25.9877 64 0 49.6664 0 32.0013C0 14.3389 25.9877 0 57.9933 0ZM57.9933 2.8865C27.6068 2.8865 2.928 15.9559 2.928 32.0013C2.928 48.0535 27.6068 61.0921 57.9933 61.0921C88.3797 61.0921 113.059 48.0535 113.059 32.0013C113.059 15.9559 88.3797 2.8865 57.9933 2.8865ZM47.806 35.0736H36.3908C36.5258 37.8558 38.1045 39.1454 40.4658 39.1454C42.2198 39.1454 43.4207 38.1672 43.7311 37.1823H47.4687C46.5106 40.5486 43.7311 42.1067 40.3038 42.1067C35.4463 42.1067 32.4239 38.7966 32.4239 34.0687C32.4239 29.489 35.6217 26.0012 40.3038 26.0012C45.5661 26.0012 48.1028 30.375 47.806 35.0736ZM40.1959 28.885C37.8211 28.885 36.6067 30.4499 36.4178 32.4517H43.8255C43.5422 30.3149 42.6381 28.885 40.1959 28.885ZM97.2311 35.0736H85.816C85.9374 37.8558 87.5296 39.1454 89.8774 39.1454C91.645 39.1454 92.8459 38.1672 93.1562 37.1823H96.8938C95.9358 40.5486 93.1562 42.1067 89.729 42.1067C84.858 42.1067 81.849 38.7966 81.849 34.0687C81.849 29.489 85.0469 26.0012 89.729 26.0012C94.9913 26.0012 97.528 30.375 97.2311 35.0736ZM89.6075 28.885C87.2462 28.885 86.0319 30.4499 85.8295 32.4517H93.2507C92.9673 30.3149 92.0633 28.885 89.6075 28.885ZM12.4541 41.6925H16.6909V32.5907H25.8392V41.6925H30.0761V20.5529H25.8392V29.2084H16.6909V20.5529H12.4541V41.6925ZM50.1403 41.6925H54.1342V33.4286C54.1342 30.3256 55.2407 29.0547 57.5345 29.0547C59.5045 29.0547 60.395 30.2962 60.395 32.8072V41.6925H64.3755V32.2953C64.3755 28.5135 63.2421 26.0012 58.7219 26.0012C56.9408 26.0012 55.0787 26.8297 54.0128 28.5429H53.9183V26.4154H50.1403V41.6925ZM67.7757 41.6925H71.7562V33.4192L77.6392 41.6925H82.5911L76.1144 33.1199L81.849 26.4154H77.0995L71.7562 33.0023V20.5529H67.7757V41.6925ZM99.5654 41.6925H103.546V20.5529H99.5654V41.6925Z" fill="#EC1B23"/>
</svg>
