<svg width="31" height="30" viewBox="0 0 31 30" fill="none" xmlns="http://www.w3.org/2000/svg">
<path d="M19.2589 7.8775C18.3364 7.835 18.0589 7.8275 15.7227 7.8275C13.3864 7.8275 13.1102 7.83625 12.1877 7.8775C9.81391 7.98625 8.70891 9.11 8.60016 11.465C8.55891 12.3875 8.54891 12.6637 8.54891 15C8.54891 17.3363 8.55891 17.6125 8.60016 18.5363C8.70891 20.885 9.80891 22.015 12.1877 22.1237C13.1089 22.165 13.3864 22.175 15.7227 22.175C18.0602 22.175 18.3364 22.1662 19.2589 22.1237C21.6327 22.0162 22.7364 20.8888 22.8464 18.5363C22.8877 17.6138 22.8964 17.3363 22.8964 15C22.8964 12.6637 22.8877 12.3875 22.8464 11.465C22.7364 9.11125 21.6302 7.98625 19.2589 7.8775ZM15.7227 19.4937C13.2414 19.4937 11.2289 17.4825 11.2289 15C11.2289 12.5188 13.2414 10.5075 15.7227 10.5075C18.2039 10.5075 20.2164 12.5188 20.2164 15C20.2164 17.4813 18.2039 19.4937 15.7227 19.4937ZM20.3939 11.38C19.8139 11.38 19.3439 10.91 19.3439 10.33C19.3439 9.75 19.8139 9.28 20.3939 9.28C20.9739 9.28 21.4439 9.75 21.4439 10.33C21.4439 10.9087 20.9739 11.38 20.3939 11.38ZM18.6389 15C18.6389 16.6112 17.3327 17.9163 15.7227 17.9163C14.1127 17.9163 12.8064 16.6112 12.8064 15C12.8064 13.3888 14.1127 12.0837 15.7227 12.0837C17.3327 12.0837 18.6389 13.3888 18.6389 15ZM15.7227 0C7.43891 0 0.722656 6.71625 0.722656 15C0.722656 23.2838 7.43891 30 15.7227 30C24.0064 30 30.7227 23.2838 30.7227 15C30.7227 6.71625 24.0064 0 15.7227 0ZM24.4202 18.6075C24.2764 21.7887 22.5052 23.5513 19.3314 23.6975C18.3977 23.74 18.0989 23.75 15.7227 23.75C13.3464 23.75 13.0489 23.74 12.1152 23.6975C8.93516 23.5513 7.17141 21.7862 7.02516 18.6075C6.98266 17.675 6.97266 17.3762 6.97266 15C6.97266 12.6237 6.98266 12.3263 7.02516 11.3925C7.17141 8.2125 8.93641 6.44875 12.1152 6.30375C13.0489 6.26 13.3464 6.25 15.7227 6.25C18.0989 6.25 18.3977 6.26 19.3314 6.30375C22.5127 6.45 24.2777 8.21875 24.4202 11.3925C24.4627 12.3263 24.4727 12.6237 24.4727 15C24.4727 17.3762 24.4627 17.675 24.4202 18.6075Z" fill="#BBC4D6"/>
</svg>
