<svg width="136" height="31" viewBox="0 0 136 31" fill="none" xmlns="http://www.w3.org/2000/svg">
<g clip-path="url(#clip0)">
<path fill-rule="evenodd" clip-rule="evenodd" d="M14.8018 0.0867008C17.9453 0.0121626 21.0333 0.922382 23.6339 2.68995C26.2344 4.45751 28.2172 6.99395 29.305 9.94427C30.3927 12.8946 30.5309 16.1112 29.7002 19.144C29.3326 20.4861 27.9466 21.2761 26.6045 20.9085C25.2623 20.5409 24.4723 19.1548 24.8399 17.8127C25.393 15.7935 25.301 13.6518 24.5768 11.6875C23.8525 9.72315 22.5324 8.03446 20.8011 6.85771C19.0698 5.68095 17.0139 5.075 14.9213 5.12462C12.8286 5.17424 10.8038 5.87695 9.13022 7.13445C7.45662 8.39195 6.21796 10.1413 5.58765 12.1378C4.95734 14.1342 4.96692 16.2778 5.61506 18.2686C6.26319 20.2593 7.51744 21.9976 9.20222 23.24C10.887 24.4825 12.918 25.1671 15.011 25.198C16.4024 25.2186 17.5137 26.3632 17.4932 27.7546C17.4726 29.1461 16.328 30.2574 14.9366 30.2368C11.7926 30.1904 8.74184 29.162 6.21121 27.2958C3.68059 25.4295 1.79675 22.8187 0.823286 19.8287C-0.150178 16.8387 -0.164569 13.6192 0.782124 10.6206C1.72882 7.62203 3.58924 4.99447 6.10308 3.10564L7.61665 5.12004L6.10308 3.10564C8.61692 1.2168 11.6584 0.161239 14.8018 0.0867008Z" fill="#121920"/>
<path d="M26.4992 24.9706C26.4992 27.0804 24.7888 28.7908 22.679 28.7908C20.5691 28.7908 18.8588 27.0804 18.8588 24.9706C18.8588 22.8608 20.5691 21.1504 22.679 21.1504C24.7888 21.1504 26.4992 22.8608 26.4992 24.9706Z" fill="#F95A59"/>
<path fill-rule="evenodd" clip-rule="evenodd" d="M60.8326 24.1173H55.8529L55.1492 23.1971C54.1749 23.576 53.3089 23.8466 52.5511 24.0631C51.7933 24.2255 50.9814 24.3338 50.0613 24.3338C47.0301 24.3338 44.6485 23.576 42.9706 22.1145C41.1844 20.599 40.3184 18.2715 40.3184 15.2945C40.3184 12.2634 41.1303 9.93591 42.7 8.36622C44.3238 6.79653 46.7595 5.98462 50.0613 5.98462C53.2548 5.98462 55.6905 6.85066 57.3684 8.5286C58.8299 9.99004 59.5335 11.8845 59.5335 14.1578C59.5335 15.8358 59.4794 17.0807 59.317 17.8385C59.1005 19.0293 58.5592 20.166 57.8015 21.1944L60.8326 24.1173ZM55.1492 15.1321C55.1492 13.5083 54.8245 12.2093 54.1208 11.1808C53.2548 9.88178 51.8475 9.23226 50.0071 9.23226C48.2751 9.23226 46.9219 9.7194 46.0558 10.7478C45.1898 11.7221 44.7568 13.1835 44.7568 15.078C44.7568 17.189 45.2439 18.7587 46.2724 19.7329C47.1925 20.599 48.5457 21.032 50.3319 21.032C51.9557 21.032 53.1465 20.5449 53.9584 19.5706C54.7703 18.5421 55.1492 17.0807 55.1492 15.1321Z" fill="#F95A59"/>
<path fill-rule="evenodd" clip-rule="evenodd" d="M79.6151 18.5422C79.6151 20.1119 79.0738 21.411 78.0454 22.4935C77.017 23.576 75.7179 24.0632 74.0941 24.0632H61.6449V20.8697H71.9832C72.6868 20.8697 73.2822 20.7073 73.7152 20.3825C74.2565 20.0036 74.5271 19.5165 74.5271 18.867C74.5271 17.3514 73.4446 16.5936 71.3336 16.5936H66.1374C64.6219 16.5936 63.3228 16.1065 62.1861 15.1863C61.0495 14.2662 60.5082 13.0754 60.5082 11.6139C60.5082 10.0442 61.0495 8.74517 62.1861 7.77088C63.2687 6.79659 64.7301 6.30945 66.5704 6.30945H78.5326V9.34057H67.9236C67.4365 9.34057 66.9493 9.55708 66.5163 9.93597C65.975 10.3149 65.7585 10.802 65.7585 11.3433C65.7585 11.9387 65.975 12.48 66.4622 12.8588C66.9493 13.2919 67.4906 13.4542 68.1401 13.4542H73.8776C75.6638 13.4542 77.0711 13.9414 78.0995 14.8616C79.128 15.7817 79.6151 17.0266 79.6151 18.5422Z" fill="#F95A59"/>
<path fill-rule="evenodd" clip-rule="evenodd" d="M100.075 15.1322C100.075 18.5963 99.1009 21.0321 97.2065 22.5476C95.6368 23.7384 93.3634 24.3338 90.4406 24.3338C87.1388 24.3338 84.7031 23.6302 83.1334 22.277C81.4013 20.7614 80.5353 18.3257 80.5353 14.9698C80.5353 12.2093 81.2931 10.0442 82.8627 8.52867C84.5407 6.85073 87.0305 6.03882 90.3864 6.03882C94.0671 6.03882 96.6111 6.85073 98.1266 8.42042C99.4257 9.82773 100.075 12.0469 100.075 15.1322ZM95.5285 15.0239C95.5285 13.2919 95.0955 11.8846 94.2836 10.8561C93.3634 9.71947 91.9561 9.12407 90.1699 9.12407C88.3837 9.12407 87.0305 9.71947 86.1104 10.9644C85.3526 11.9928 84.9737 13.346 84.9737 14.9698C84.9737 16.8643 85.2985 18.2716 85.8939 19.1917C86.7599 20.4367 88.2755 21.0862 90.6029 21.0862C92.5515 21.0862 93.9047 20.4908 94.6625 19.2459C95.2579 18.3798 95.5285 16.9184 95.5285 15.0239Z" fill="#F95A59"/>
<path fill-rule="evenodd" clip-rule="evenodd" d="M117.883 16.6478H105.65V24.0091H101.266V13.1295C101.266 12.48 101.374 11.7222 101.645 10.9103C102.132 9.44883 103.052 8.36628 104.405 7.6085C105.975 6.74247 108.573 6.30945 112.145 6.30945C119.777 6.30945 127.409 6.30945 135.041 6.30945V9.28645H128.438V24.0091H124.324V9.28645C120.102 9.28645 116.096 9.23232 111.875 9.23232C110.251 9.23232 109.114 9.34057 108.465 9.50296C107.328 9.77359 106.57 10.4231 106.083 11.3433C105.704 12.0469 105.542 12.8047 105.542 13.6708H117.883V16.6478Z" fill="#F95A59"/>
</g>
<defs>
<clipPath id="clip0">
<rect width="135.041" height="30.3184" fill="white"/>
</clipPath>
</defs>
</svg>
