<svg width="18" height="18" viewBox="0 0 18 18" fill="none" xmlns="http://www.w3.org/2000/svg">
<path fill-rule="evenodd" clip-rule="evenodd" d="M8.02339 5.89537C8.48744 5.30347 8.65385 4.67965 8.12901 4.12901C6.95124 2.56918 6.15915 1.60458 5.66232 1.14005C4.71777 0.256923 3.16398 0.37638 2.34593 1.1393C1.90655 1.54906 1.7578 1.68978 1.30665 2.1235C-1.20631 4.50326 0.326225 9.53399 4.40026 13.3938C8.47337 17.2527 13.788 18.704 16.3063 16.3192C16.7226 15.9394 17.0751 15.6056 17.353 15.3275C18.1547 14.5255 18.2764 13.1197 17.3478 12.2065C16.8717 11.7382 15.8998 11.0247 14.1825 9.86201C13.6565 9.41686 13.0328 9.51334 12.4611 9.86838C12.186 10.0392 11.9859 10.2119 11.6079 10.57L10.9216 11.2199C10.8312 11.3055 9.60379 10.7237 8.41229 9.59489C7.22015 8.46543 6.60587 7.30362 6.69584 7.21847L7.38263 6.56808C7.50254 6.45448 7.55986 6.39948 7.63338 6.32634C7.78655 6.17398 7.91337 6.03571 8.02339 5.89537ZM12.1875 12.4188L12.8739 11.7688C13.0819 11.5717 13.2167 11.4505 13.3264 11.367C14.8308 12.3896 15.7021 13.0325 16.058 13.3825C16.2717 13.5927 16.2385 13.9761 16.0527 14.1619C15.7957 14.4191 15.4617 14.7353 15.0519 15.1095C13.4235 16.6514 9.13336 15.4798 5.6664 12.1952C2.19835 8.90949 0.961178 4.84833 2.57726 3.31789C3.02659 2.88595 3.16895 2.75128 3.60206 2.34736C3.76445 2.19591 4.20679 2.1619 4.40434 2.3466C4.78685 2.70425 5.49641 3.56416 6.5402 4.94034C6.48617 5.00384 6.41868 5.07559 6.33655 5.15729C6.27627 5.21726 6.22604 5.26544 6.11625 5.36946L5.43015 6.01921C4.26294 7.12386 5.25697 9.00393 7.14592 10.7935C9.03357 12.5819 11.0207 13.5238 12.1875 12.4188Z" fill="white"/>
</svg>
