<svg width="26" height="26" viewBox="0 0 26 26" fill="none" xmlns="http://www.w3.org/2000/svg">
<g clip-path="url(#clip0)">
<path d="M8.42969 16.8089H22.1916C22.5324 16.8089 22.8313 16.5836 22.9236 16.2563L25.9706 5.59201C26.0361 5.36211 25.9913 5.11514 25.8471 4.92412C25.7027 4.73369 25.4781 4.62122 25.2385 4.62122H6.67119L6.12668 2.17102C6.04932 1.8221 5.73987 1.57434 5.38281 1.57434H0.761719C0.34079 1.57434 0 1.91513 0 2.33606C0 2.75719 0.34079 3.09778 0.761719 3.09778H4.77145L7.52217 15.4757C6.71284 15.8276 6.14453 16.6332 6.14453 17.5706C6.14453 18.8306 7.16968 19.8558 8.42969 19.8558H22.1916C22.6127 19.8558 22.9533 19.5152 22.9533 19.0941C22.9533 18.6731 22.6127 18.3324 22.1916 18.3324H8.42969C8.01015 18.3324 7.66797 17.991 7.66797 17.5706C7.66797 17.1503 8.01015 16.8089 8.42969 16.8089Z" fill="white"/>
<path d="M7.66797 22.141C7.66797 23.4012 8.69312 24.4261 9.95332 24.4261C11.2133 24.4261 12.2385 23.4012 12.2385 22.141C12.2385 20.881 11.2133 19.8558 9.95332 19.8558C8.69312 19.8558 7.66797 20.881 7.66797 22.141Z" fill="white"/>
<path d="M18.3831 22.141C18.3831 23.4012 19.4082 24.4261 20.6682 24.4261C21.9284 24.4261 22.9534 23.4012 22.9534 22.141C22.9534 20.881 21.9284 19.8558 20.6682 19.8558C19.4082 19.8558 18.3831 20.881 18.3831 22.141Z" fill="white"/>
</g>
<defs>
<clipPath id="clip0">
<rect width="26" height="26" fill="white"/>
</clipPath>
</defs>
</svg>
