<svg width="16" height="16" viewBox="0 0 16 16" fill="none" xmlns="http://www.w3.org/2000/svg">
<path fill-rule="evenodd" clip-rule="evenodd" d="M12 6.5C12 9.53757 9.53757 12 6.5 12C3.46243 12 1 9.53757 1 6.5C1 3.46243 3.46243 1 6.5 1C9.53757 1 12 3.46243 12 6.5ZM10.5691 11.5691C9.45527 12.4643 8.0402 13 6.5 13C2.91015 13 0 10.0899 0 6.5C0 2.91015 2.91015 0 6.5 0C10.0899 0 13 2.91015 13 6.5C13 8.18955 12.3554 9.72854 11.2987 10.8844L15.3536 14.9393C15.5488 15.1346 15.5488 15.4512 15.3536 15.6464C15.1583 15.8417 14.8417 15.8417 14.6464 15.6464L10.5691 11.5691Z" fill="#BBC4D6"/>
</svg>
