<svg width="31" height="30" viewBox="0 0 31 30" fill="none" xmlns="http://www.w3.org/2000/svg">
<path d="M15.7227 0C7.43891 0 0.722656 6.71625 0.722656 15C0.722656 23.2838 7.43891 30 15.7227 30C24.0064 30 30.7227 23.2838 30.7227 15C30.7227 6.71625 24.0064 0 15.7227 0ZM21.2739 21.115C18.6464 21.295 12.7939 21.295 10.1702 21.115C7.32516 20.92 6.99391 19.5275 6.97266 15C6.99391 10.4637 7.32891 9.08 10.1702 8.885C12.7939 8.705 18.6477 8.705 21.2739 8.885C24.1202 9.08 24.4502 10.4725 24.4727 15C24.4502 19.5362 24.1164 20.92 21.2739 21.115ZM13.2227 12.0725L19.3689 14.995L13.2227 17.9275V12.0725Z" fill="#BBC4D6"/>
</svg>
